<mxfile host="www.draw.io" modified="2019-10-24T05:35:55.053Z" agent="Mozilla/5.0 (Macintosh; Intel Mac OS X 10_13_6) AppleWebKit/537.36 (KHTML, like Gecko) Chrome/76.0.3809.132 Safari/537.36" etag="hLvW-ScR4PiuL13XfwVu" version="12.1.4" type="github" pages="1">
  <diagram id="FX7oXliN3Wcr0LMkaTqC" name="Page-1">
    <mxGraphModel dx="1377" dy="751" grid="1" gridSize="10" guides="1" tooltips="1" connect="1" arrows="1" fold="1" page="1" pageScale="1" pageWidth="827" pageHeight="1169" math="0" shadow="0">
      <root>
        <mxCell id="0"/>
        <mxCell id="1" parent="0"/>
        <mxCell id="Z957E_pNa9dMbmWkZO4q-1" value="经济学基础" style="rounded=1;whiteSpace=wrap;html=1;" vertex="1" parent="1">
          <mxGeometry x="202.5" y="140" width="120" height="60" as="geometry"/>
        </mxCell>
        <mxCell id="Z957E_pNa9dMbmWkZO4q-2" value="经济学原理（微观）" style="rounded=1;whiteSpace=wrap;html=1;" vertex="1" parent="1">
          <mxGeometry x="397.5" y="90" width="120" height="60" as="geometry"/>
        </mxCell>
        <mxCell id="Z957E_pNa9dMbmWkZO4q-3" value="经济学原理（宏观）" style="rounded=1;whiteSpace=wrap;html=1;" vertex="1" parent="1">
          <mxGeometry x="397.5" y="190" width="120" height="60" as="geometry"/>
        </mxCell>
        <mxCell id="Z957E_pNa9dMbmWkZO4q-4" value="金融入门" style="rounded=1;whiteSpace=wrap;html=1;" vertex="1" parent="1">
          <mxGeometry x="30" y="600" width="120" height="60" as="geometry"/>
        </mxCell>
        <mxCell id="Z957E_pNa9dMbmWkZO4q-5" value="货币金融学（米什金）" style="rounded=1;whiteSpace=wrap;html=1;" vertex="1" parent="1">
          <mxGeometry x="400" y="340" width="120" height="60" as="geometry"/>
        </mxCell>
        <mxCell id="Z957E_pNa9dMbmWkZO4q-6" value="" style="shape=curlyBracket;whiteSpace=wrap;html=1;rounded=1;" vertex="1" parent="1">
          <mxGeometry x="342.5" y="110" width="20" height="120" as="geometry"/>
        </mxCell>
        <mxCell id="Z957E_pNa9dMbmWkZO4q-7" value="美国金融市场" style="rounded=1;whiteSpace=wrap;html=1;" vertex="1" parent="1">
          <mxGeometry x="600" y="250" width="120" height="60" as="geometry"/>
        </mxCell>
        <mxCell id="Z957E_pNa9dMbmWkZO4q-8" value="美联储的形成结构" style="rounded=1;whiteSpace=wrap;html=1;" vertex="1" parent="1">
          <mxGeometry x="600" y="340" width="120" height="60" as="geometry"/>
        </mxCell>
        <mxCell id="Z957E_pNa9dMbmWkZO4q-9" value="美国货币政策实施过程" style="rounded=1;whiteSpace=wrap;html=1;" vertex="1" parent="1">
          <mxGeometry x="600" y="430" width="120" height="60" as="geometry"/>
        </mxCell>
        <mxCell id="Z957E_pNa9dMbmWkZO4q-10" value="" style="shape=curlyBracket;whiteSpace=wrap;html=1;rounded=1;rotation=1;" vertex="1" parent="1">
          <mxGeometry x="540" y="280" width="20" height="170" as="geometry"/>
        </mxCell>
        <mxCell id="Z957E_pNa9dMbmWkZO4q-11" value="金融学（黄达）" style="rounded=1;whiteSpace=wrap;html=1;" vertex="1" parent="1">
          <mxGeometry x="400" y="590" width="120" height="60" as="geometry"/>
        </mxCell>
        <mxCell id="Z957E_pNa9dMbmWkZO4q-12" value="中国金融系统的形成和发展" style="rounded=1;whiteSpace=wrap;html=1;" vertex="1" parent="1">
          <mxGeometry x="570" y="590" width="120" height="60" as="geometry"/>
        </mxCell>
        <mxCell id="Z957E_pNa9dMbmWkZO4q-13" value="国际金融学（姜波克）" style="rounded=1;whiteSpace=wrap;html=1;" vertex="1" parent="1">
          <mxGeometry x="397.5" y="420" width="120" height="60" as="geometry"/>
        </mxCell>
        <mxCell id="Z957E_pNa9dMbmWkZO4q-14" value="国际金融" style="rounded=1;whiteSpace=wrap;html=1;" vertex="1" parent="1">
          <mxGeometry x="210" y="410" width="120" height="60" as="geometry"/>
        </mxCell>
        <mxCell id="Z957E_pNa9dMbmWkZO4q-15" value="国内金融" style="rounded=1;whiteSpace=wrap;html=1;" vertex="1" parent="1">
          <mxGeometry x="210" y="590" width="120" height="60" as="geometry"/>
        </mxCell>
        <mxCell id="Z957E_pNa9dMbmWkZO4q-16" value="" style="shape=curlyBracket;whiteSpace=wrap;html=1;rounded=1;" vertex="1" parent="1">
          <mxGeometry x="360" y="370" width="20" height="160" as="geometry"/>
        </mxCell>
        <mxCell id="Z957E_pNa9dMbmWkZO4q-17" value="" style="shape=curlyBracket;whiteSpace=wrap;html=1;rounded=1;" vertex="1" parent="1">
          <mxGeometry x="169" y="440" width="20" height="390" as="geometry"/>
        </mxCell>
        <mxCell id="Z957E_pNa9dMbmWkZO4q-18" value="" style="endArrow=classic;html=1;entryX=0;entryY=0.5;entryDx=0;entryDy=0;exitX=1;exitY=0.5;exitDx=0;exitDy=0;" edge="1" parent="1" source="Z957E_pNa9dMbmWkZO4q-15" target="Z957E_pNa9dMbmWkZO4q-11">
          <mxGeometry width="50" height="50" relative="1" as="geometry">
            <mxPoint x="340" y="650" as="sourcePoint"/>
            <mxPoint x="390" y="600" as="targetPoint"/>
          </mxGeometry>
        </mxCell>
        <mxCell id="Z957E_pNa9dMbmWkZO4q-19" value="" style="endArrow=classic;html=1;entryX=0;entryY=0.5;entryDx=0;entryDy=0;" edge="1" parent="1" target="Z957E_pNa9dMbmWkZO4q-12">
          <mxGeometry width="50" height="50" relative="1" as="geometry">
            <mxPoint x="520" y="620" as="sourcePoint"/>
            <mxPoint x="570" y="600" as="targetPoint"/>
          </mxGeometry>
        </mxCell>
        <mxCell id="Z957E_pNa9dMbmWkZO4q-20" value="金融衍生" style="rounded=1;whiteSpace=wrap;html=1;" vertex="1" parent="1">
          <mxGeometry x="210" y="806" width="120" height="60" as="geometry"/>
        </mxCell>
        <mxCell id="Z957E_pNa9dMbmWkZO4q-21" value="银行" style="rounded=1;whiteSpace=wrap;html=1;" vertex="1" parent="1">
          <mxGeometry x="400" y="930" width="120" height="60" as="geometry"/>
        </mxCell>
        <mxCell id="Z957E_pNa9dMbmWkZO4q-22" value="证券" style="rounded=1;whiteSpace=wrap;html=1;" vertex="1" parent="1">
          <mxGeometry x="397.5" y="700" width="120" height="60" as="geometry"/>
        </mxCell>
        <mxCell id="Z957E_pNa9dMbmWkZO4q-23" value="期货期权" style="rounded=1;whiteSpace=wrap;html=1;" vertex="1" parent="1">
          <mxGeometry x="397.5" y="830" width="120" height="60" as="geometry"/>
        </mxCell>
        <mxCell id="Z957E_pNa9dMbmWkZO4q-24" value="期权、期货及其他衍生产品（约翰赫尔）" style="rounded=1;whiteSpace=wrap;html=1;" vertex="1" parent="1">
          <mxGeometry x="572.5" y="830" width="120" height="60" as="geometry"/>
        </mxCell>
        <mxCell id="Z957E_pNa9dMbmWkZO4q-25" value="投资学（博迪）" style="rounded=1;whiteSpace=wrap;html=1;" vertex="1" parent="1">
          <mxGeometry x="570" y="670" width="120" height="60" as="geometry"/>
        </mxCell>
        <mxCell id="Z957E_pNa9dMbmWkZO4q-26" value="证券分析（格雷厄姆）" style="rounded=1;whiteSpace=wrap;html=1;" vertex="1" parent="1">
          <mxGeometry x="570" y="746" width="120" height="60" as="geometry"/>
        </mxCell>
        <mxCell id="Z957E_pNa9dMbmWkZO4q-27" value="国际经济学（克鲁格曼）" style="rounded=1;whiteSpace=wrap;html=1;" vertex="1" parent="1">
          <mxGeometry x="390" y="500" width="120" height="60" as="geometry"/>
        </mxCell>
        <mxCell id="Z957E_pNa9dMbmWkZO4q-28" value="" style="shape=curlyBracket;whiteSpace=wrap;html=1;rounded=1;" vertex="1" parent="1">
          <mxGeometry x="352.5" y="730" width="20" height="230" as="geometry"/>
        </mxCell>
        <mxCell id="Z957E_pNa9dMbmWkZO4q-31" value="" style="shape=curlyBracket;whiteSpace=wrap;html=1;rounded=1;" vertex="1" parent="1">
          <mxGeometry x="534" y="700" width="20" height="94" as="geometry"/>
        </mxCell>
        <mxCell id="Z957E_pNa9dMbmWkZO4q-32" value="" style="endArrow=classic;html=1;exitX=1;exitY=0.5;exitDx=0;exitDy=0;" edge="1" parent="1" source="Z957E_pNa9dMbmWkZO4q-23">
          <mxGeometry width="50" height="50" relative="1" as="geometry">
            <mxPoint x="520" y="900" as="sourcePoint"/>
            <mxPoint x="570" y="860" as="targetPoint"/>
          </mxGeometry>
        </mxCell>
        <mxCell id="Z957E_pNa9dMbmWkZO4q-33" value="经济学入门" style="rounded=1;whiteSpace=wrap;html=1;" vertex="1" parent="1">
          <mxGeometry x="30" y="140" width="120" height="60" as="geometry"/>
        </mxCell>
        <mxCell id="Z957E_pNa9dMbmWkZO4q-34" value="" style="endArrow=classic;html=1;" edge="1" parent="1" source="Z957E_pNa9dMbmWkZO4q-33" target="Z957E_pNa9dMbmWkZO4q-1">
          <mxGeometry width="50" height="50" relative="1" as="geometry">
            <mxPoint x="150" y="220" as="sourcePoint"/>
            <mxPoint x="200" y="170" as="targetPoint"/>
          </mxGeometry>
        </mxCell>
        <mxCell id="Z957E_pNa9dMbmWkZO4q-35" value="公司金融" style="rounded=1;whiteSpace=wrap;html=1;" vertex="1" parent="1">
          <mxGeometry x="30" y="1050" width="120" height="60" as="geometry"/>
        </mxCell>
        <mxCell id="Z957E_pNa9dMbmWkZO4q-36" value="公司理财（罗斯）" style="rounded=1;whiteSpace=wrap;html=1;" vertex="1" parent="1">
          <mxGeometry x="200" y="1120" width="120" height="60" as="geometry"/>
        </mxCell>
        <mxCell id="Z957E_pNa9dMbmWkZO4q-37" value="公司法" style="rounded=1;whiteSpace=wrap;html=1;" vertex="1" parent="1">
          <mxGeometry x="200" y="1010" width="120" height="60" as="geometry"/>
        </mxCell>
        <mxCell id="Z957E_pNa9dMbmWkZO4q-38" value="财务管理" style="rounded=1;whiteSpace=wrap;html=1;" vertex="1" parent="1">
          <mxGeometry x="380" y="1010" width="120" height="60" as="geometry"/>
        </mxCell>
        <mxCell id="Z957E_pNa9dMbmWkZO4q-39" value="项目评估" style="rounded=1;whiteSpace=wrap;html=1;" vertex="1" parent="1">
          <mxGeometry x="380" y="1090" width="120" height="60" as="geometry"/>
        </mxCell>
        <mxCell id="Z957E_pNa9dMbmWkZO4q-40" value="证券估值" style="rounded=1;whiteSpace=wrap;html=1;" vertex="1" parent="1">
          <mxGeometry x="380" y="1170" width="120" height="60" as="geometry"/>
        </mxCell>
        <mxCell id="Z957E_pNa9dMbmWkZO4q-41" value="企业并购" style="rounded=1;whiteSpace=wrap;html=1;" vertex="1" parent="1">
          <mxGeometry x="380" y="1250" width="120" height="60" as="geometry"/>
        </mxCell>
        <mxCell id="Z957E_pNa9dMbmWkZO4q-42" value="" style="shape=curlyBracket;whiteSpace=wrap;html=1;rounded=1;" vertex="1" parent="1">
          <mxGeometry x="165" y="1030" width="20" height="120" as="geometry"/>
        </mxCell>
        <mxCell id="Z957E_pNa9dMbmWkZO4q-43" value="" style="shape=curlyBracket;whiteSpace=wrap;html=1;rounded=1;" vertex="1" parent="1">
          <mxGeometry x="333" y="1040" width="20" height="230" as="geometry"/>
        </mxCell>
      </root>
    </mxGraphModel>
  </diagram>
</mxfile>
